<?xml version="1.0" standalone="no"?><svg xmlns="http://www.w3.org/2000/svg" viewBox="0 0 1440 320"><path fill="#F4E5DB" fill-opacity="1" d="M0,160L26.7,149.3C53.3,139,107,117,160,144C213.3,171,267,245,320,261.3C373.3,277,427,235,480,202.7C533.3,171,587,149,640,133.3C693.3,117,747,107,800,106.7C853.3,107,907,117,960,154.7C1013.3,192,1067,256,1120,256C1173.3,256,1227,192,1280,176C1333.3,160,1387,192,1413,208L1440,224L1440,320L1413.3,320C1386.7,320,1333,320,1280,320C1226.7,320,1173,320,1120,320C1066.7,320,1013,320,960,320C906.7,320,853,320,800,320C746.7,320,693,320,640,320C586.7,320,533,320,480,320C426.7,320,373,320,320,320C266.7,320,213,320,160,320C106.7,320,53,320,27,320L0,320Z"></path></svg>