<?xml version="1.0" standalone="no"?><svg xmlns="http://www.w3.org/2000/svg" viewBox="0 0 1440 320"><path fill="#F4E5DB" fill-opacity="1" d="M0,128L26.7,117.3C53.3,107,107,85,160,112C213.3,139,267,213,320,229.3C373.3,245,427,203,480,170.7C533.3,139,587,117,640,106.7C693.3,96,747,96,800,122.7C853.3,149,907,203,960,218.7C1013.3,235,1067,213,1120,186.7C1173.3,160,1227,128,1280,117.3C1333.3,107,1387,117,1413,122.7L1440,128L1440,320L1413.3,320C1386.7,320,1333,320,1280,320C1226.7,320,1173,320,1120,320C1066.7,320,1013,320,960,320C906.7,320,853,320,800,320C746.7,320,693,320,640,320C586.7,320,533,320,480,320C426.7,320,373,320,320,320C266.7,320,213,320,160,320C106.7,320,53,320,27,320L0,320Z"></path></svg>